<?xml version="1.0" encoding="UTF-8" standalone="no"?>
<!DOCTYPE svg PUBLIC "-//W3C//DTD SVG 1.1//EN"
 "http://www.w3.org/Graphics/SVG/1.1/DTD/svg11.dtd">
<!-- Generated by graphviz version 2.43.0 (0)
 -->
<!-- Title: DockerDeps Pages: 1 -->
<svg width="1280pt" height="900pt"
 viewBox="0.00 0.00 1280.00 899.75" xmlns="http://www.w3.org/2000/svg" xmlns:xlink="http://www.w3.org/1999/xlink">
<g id="graph0" class="graph" transform="scale(1 1) rotate(0) translate(4 895.75)">
<title>DockerDeps</title>
<polygon fill="white" stroke="transparent" points="-4,4 -4,-895.75 1276,-895.75 1276,4 -4,4"/>
<g id="clust1" class="cluster">
<title>clusterDockerfile</title>
<polygon fill="none" stroke="royalblue" points="657,-116 657,-812.75 1039,-812.75 1039,-116 657,-116"/>
<text text-anchor="middle" x="848" y="-797.55" font-family="Times,serif" font-size="14.00">docker/&lt;distro&gt;/Dockerfile</text>
</g>
<g id="clust2" class="cluster">
<title>clusterCache</title>
<polygon fill="none" stroke="royalblue" points="8,-8 8,-83 1125,-83 1125,-8 8,-8"/>
<text text-anchor="middle" x="566.5" y="-67.8" font-family="Times,serif" font-size="14.00">cache/&lt;distro&gt;/</text>
</g>
<!-- DISTRO_IMG -->
<g id="node1" class="node">
<title>DISTRO_IMG</title>
<path fill="royalblue" stroke="black" d="M862,-887.48C862,-889.28 840.49,-890.75 814,-890.75 787.51,-890.75 766,-889.28 766,-887.48 766,-887.48 766,-858.02 766,-858.02 766,-856.22 787.51,-854.75 814,-854.75 840.49,-854.75 862,-856.22 862,-858.02 862,-858.02 862,-887.48 862,-887.48"/>
<path fill="none" stroke="black" d="M862,-887.48C862,-885.67 840.49,-884.2 814,-884.2 787.51,-884.2 766,-885.67 766,-887.48"/>
<text text-anchor="middle" x="814" y="-869.05" font-family="Times,serif" font-size="14.00">&lt;distro&gt;:latest</text>
</g>
<!-- ENV_IMG -->
<g id="node6" class="node">
<title>ENV_IMG</title>
<path fill="royalblue" stroke="black" d="M1011,-777.1C1011,-779.74 976.49,-781.88 934,-781.88 891.51,-781.88 857,-779.74 857,-777.1 857,-777.1 857,-734.15 857,-734.15 857,-731.51 891.51,-729.37 934,-729.37 976.49,-729.37 1011,-731.51 1011,-734.15 1011,-734.15 1011,-777.1 1011,-777.1"/>
<path fill="none" stroke="black" d="M1011,-777.1C1011,-774.47 976.49,-772.33 934,-772.33 891.51,-772.33 857,-774.47 857,-777.1"/>
<text text-anchor="middle" x="934" y="-759.42" font-family="Times,serif" font-size="14.00">java&#45;native:&lt;distro&gt;_env</text>
<text text-anchor="middle" x="934" y="-744.42" font-family="Times,serif" font-size="14.00">env</text>
</g>
<!-- DISTRO_IMG&#45;&gt;ENV_IMG -->
<g id="edge9" class="edge">
<title>DISTRO_IMG&#45;&gt;ENV_IMG</title>
<path fill="none" stroke="black" d="M831.97,-854.51C849.94,-837.27 878.03,-810.32 900.19,-789.06"/>
<polygon fill="black" stroke="black" points="902.66,-791.54 907.46,-782.09 897.82,-786.49 902.66,-791.54"/>
</g>
<!-- PKG -->
<g id="node2" class="node">
<title>PKG</title>
<polygon fill="royalblue" stroke="black" points="987.5,-891.75 884.5,-891.75 880.5,-887.75 880.5,-853.75 983.5,-853.75 987.5,-857.75 987.5,-891.75"/>
<polyline fill="none" stroke="black" points="983.5,-887.75 880.5,-887.75 "/>
<polyline fill="none" stroke="black" points="983.5,-887.75 983.5,-853.75 "/>
<polyline fill="none" stroke="black" points="983.5,-887.75 987.5,-891.75 "/>
<text text-anchor="middle" x="934" y="-876.55" font-family="Times,serif" font-size="14.00">Build packages</text>
<text text-anchor="middle" x="934" y="-861.55" font-family="Times,serif" font-size="14.00">e.g. cmake, g++</text>
</g>
<!-- PKG&#45;&gt;ENV_IMG -->
<g id="edge10" class="edge">
<title>PKG&#45;&gt;ENV_IMG</title>
<path fill="none" stroke="black" stroke-dasharray="5,2" d="M934,-853.51C934,-837.09 934,-812.51 934,-792.22"/>
<polygon fill="black" stroke="black" points="937.5,-792.06 934,-782.06 930.5,-792.06 937.5,-792.06"/>
<text text-anchor="middle" x="951" y="-824.55" font-family="Times,serif" font-size="14.00">install</text>
</g>
<!-- JAVAPKG -->
<g id="node3" class="node">
<title>JAVAPKG</title>
<polygon fill="crimson" stroke="black" points="1108,-891.75 1010,-891.75 1006,-887.75 1006,-853.75 1104,-853.75 1108,-857.75 1108,-891.75"/>
<polyline fill="none" stroke="black" points="1104,-887.75 1006,-887.75 "/>
<polyline fill="none" stroke="black" points="1104,-887.75 1104,-853.75 "/>
<polyline fill="none" stroke="black" points="1104,-887.75 1108,-891.75 "/>
<text text-anchor="middle" x="1057" y="-876.55" font-family="Times,serif" font-size="14.00">Java packages</text>
<text text-anchor="middle" x="1057" y="-861.55" font-family="Times,serif" font-size="14.00">e.g. jdk, maven</text>
</g>
<!-- JAVAPKG&#45;&gt;ENV_IMG -->
<g id="edge11" class="edge">
<title>JAVAPKG&#45;&gt;ENV_IMG</title>
<path fill="none" stroke="black" stroke-dasharray="5,2" d="M1037.51,-853.51C1019.01,-836.19 990.79,-809.78 968.49,-788.9"/>
<polygon fill="black" stroke="black" points="970.87,-786.34 961.17,-782.06 966.08,-791.45 970.87,-786.34"/>
<text text-anchor="middle" x="1034" y="-824.55" font-family="Times,serif" font-size="14.00">install</text>
</g>
<!-- SRC -->
<g id="node4" class="node">
<title>SRC</title>
<polygon fill="royalblue" stroke="black" points="648.5,-773.62 645.5,-777.62 624.5,-777.62 621.5,-773.62 589.5,-773.62 589.5,-737.62 648.5,-737.62 648.5,-773.62"/>
<text text-anchor="middle" x="619" y="-751.92" font-family="Times,serif" font-size="14.00">git repo</text>
</g>
<!-- DEVEL_IMG -->
<g id="node7" class="node">
<title>DEVEL_IMG</title>
<path fill="royalblue" stroke="black" d="M829,-673.85C829,-676.49 792.25,-678.63 747,-678.63 701.75,-678.63 665,-676.49 665,-673.85 665,-673.85 665,-630.9 665,-630.9 665,-628.26 701.75,-626.12 747,-626.12 792.25,-626.12 829,-628.26 829,-630.9 829,-630.9 829,-673.85 829,-673.85"/>
<path fill="none" stroke="black" d="M829,-673.85C829,-671.22 792.25,-669.08 747,-669.08 701.75,-669.08 665,-671.22 665,-673.85"/>
<text text-anchor="middle" x="747" y="-656.17" font-family="Times,serif" font-size="14.00">java&#45;native:&lt;distro&gt;_devel</text>
<text text-anchor="middle" x="747" y="-641.17" font-family="Times,serif" font-size="14.00">devel</text>
</g>
<!-- SRC&#45;&gt;DEVEL_IMG -->
<g id="edge12" class="edge">
<title>SRC&#45;&gt;DEVEL_IMG</title>
<path fill="none" stroke="black" stroke-dasharray="5,2" d="M640.71,-737.45C658.88,-723.08 685.28,-702.2 707.22,-684.84"/>
<polygon fill="black" stroke="black" points="709.41,-687.57 715.08,-678.62 705.06,-682.08 709.41,-687.57"/>
<text text-anchor="middle" x="703.5" y="-700.3" font-family="Times,serif" font-size="14.00">copy</text>
</g>
<!-- SAMPLE -->
<g id="node5" class="node">
<title>SAMPLE</title>
<polygon fill="royalblue" stroke="black" points="1105,-477.88 1102,-481.88 1081,-481.88 1078,-477.88 1049,-477.88 1049,-441.88 1105,-441.88 1105,-477.88"/>
<text text-anchor="middle" x="1077" y="-456.18" font-family="Times,serif" font-size="14.00">sample</text>
</g>
<!-- INSTALL_DEVEL_IMG -->
<g id="node11" class="node">
<title>INSTALL_DEVEL_IMG</title>
<path fill="royalblue" stroke="black" d="M1031.5,-378.1C1031.5,-380.74 986.01,-382.88 930,-382.88 873.99,-382.88 828.5,-380.74 828.5,-378.1 828.5,-378.1 828.5,-335.15 828.5,-335.15 828.5,-332.51 873.99,-330.37 930,-330.37 986.01,-330.37 1031.5,-332.51 1031.5,-335.15 1031.5,-335.15 1031.5,-378.1 1031.5,-378.1"/>
<path fill="none" stroke="black" d="M1031.5,-378.1C1031.5,-375.47 986.01,-373.33 930,-373.33 873.99,-373.33 828.5,-375.47 828.5,-378.1"/>
<text text-anchor="middle" x="930" y="-360.43" font-family="Times,serif" font-size="14.00">java&#45;native:&lt;distro&gt;_install_devel</text>
<text text-anchor="middle" x="930" y="-345.43" font-family="Times,serif" font-size="14.00">install_devel</text>
</g>
<!-- SAMPLE&#45;&gt;INSTALL_DEVEL_IMG -->
<g id="edge13" class="edge">
<title>SAMPLE&#45;&gt;INSTALL_DEVEL_IMG</title>
<path fill="none" stroke="black" stroke-dasharray="5,2" d="M1054.05,-441.71C1050.38,-439.02 1046.6,-436.29 1043,-433.75 1021.44,-418.53 997.21,-402.12 976.73,-388.45"/>
<polygon fill="black" stroke="black" points="978.47,-385.4 968.21,-382.76 974.59,-391.22 978.47,-385.4"/>
<text text-anchor="middle" x="1028.5" y="-404.55" font-family="Times,serif" font-size="14.00">copy</text>
</g>
<!-- ENV_IMG&#45;&gt;DEVEL_IMG -->
<g id="edge1" class="edge">
<title>ENV_IMG&#45;&gt;DEVEL_IMG</title>
<path fill="none" stroke="black" d="M887.78,-729.6C862.02,-715.65 829.78,-698.2 802.65,-683.51"/>
<polygon fill="black" stroke="black" points="804.13,-680.33 793.67,-678.64 800.79,-686.48 804.13,-680.33"/>
</g>
<!-- INSTALL_ENV_IMG -->
<g id="node10" class="node">
<title>INSTALL_ENV_IMG</title>
<path fill="royalblue" stroke="black" d="M1031,-481.35C1031,-483.99 987.52,-486.13 934,-486.13 880.48,-486.13 837,-483.99 837,-481.35 837,-481.35 837,-438.4 837,-438.4 837,-435.76 880.48,-433.62 934,-433.62 987.52,-433.62 1031,-435.76 1031,-438.4 1031,-438.4 1031,-481.35 1031,-481.35"/>
<path fill="none" stroke="black" d="M1031,-481.35C1031,-478.72 987.52,-476.58 934,-476.58 880.48,-476.58 837,-478.72 837,-481.35"/>
<text text-anchor="middle" x="934" y="-463.68" font-family="Times,serif" font-size="14.00">java&#45;native:&lt;distro&gt;_install_env</text>
<text text-anchor="middle" x="934" y="-448.68" font-family="Times,serif" font-size="14.00">install_env</text>
</g>
<!-- ENV_IMG&#45;&gt;INSTALL_ENV_IMG -->
<g id="edge4" class="edge">
<title>ENV_IMG&#45;&gt;INSTALL_ENV_IMG</title>
<path fill="none" stroke="black" d="M934,-729.33C934,-676.94 934,-556.49 934,-496.37"/>
<polygon fill="black" stroke="black" points="937.5,-496.22 934,-486.22 930.5,-496.22 937.5,-496.22"/>
</g>
<!-- ENV_TAR -->
<g id="node14" class="node">
<title>ENV_TAR</title>
<polygon fill="royalblue" stroke="black" points="1111.5,-52 1020.5,-52 1020.5,-16 1117.5,-16 1117.5,-46 1111.5,-52"/>
<polyline fill="none" stroke="black" points="1111.5,-52 1111.5,-46 "/>
<polyline fill="none" stroke="black" points="1117.5,-46 1111.5,-46 "/>
<text text-anchor="middle" x="1069" y="-30.3" font-family="Times,serif" font-size="14.00">docker_env.tar</text>
</g>
<!-- ENV_IMG&#45;&gt;ENV_TAR -->
<g id="edge14" class="edge">
<title>ENV_IMG&#45;&gt;ENV_TAR</title>
<path fill="none" stroke="red" d="M1011.22,-746.24C1067.16,-735.37 1133,-710.45 1133,-653.38 1133,-653.38 1133,-653.38 1133,-149.12 1133,-122.21 1128.7,-114.73 1116,-91 1110.07,-79.92 1101.7,-69.04 1093.66,-59.85"/>
<polygon fill="red" stroke="red" points="1096.07,-57.3 1086.75,-52.26 1090.89,-62.01 1096.07,-57.3"/>
<text text-anchor="middle" x="1202.5" y="-404.55" font-family="Times,serif" font-size="14.00">make save_&lt;distro&gt;_env</text>
</g>
<!-- BUILD_IMG -->
<g id="node8" class="node">
<title>BUILD_IMG</title>
<path fill="royalblue" stroke="black" d="M828,-584.6C828,-587.24 791.69,-589.38 747,-589.38 702.31,-589.38 666,-587.24 666,-584.6 666,-584.6 666,-541.65 666,-541.65 666,-539.01 702.31,-536.87 747,-536.87 791.69,-536.87 828,-539.01 828,-541.65 828,-541.65 828,-584.6 828,-584.6"/>
<path fill="none" stroke="black" d="M828,-584.6C828,-581.97 791.69,-579.83 747,-579.83 702.31,-579.83 666,-581.97 666,-584.6"/>
<text text-anchor="middle" x="747" y="-566.92" font-family="Times,serif" font-size="14.00">java&#45;native:&lt;distro&gt;_build</text>
<text text-anchor="middle" x="747" y="-551.92" font-family="Times,serif" font-size="14.00">build</text>
</g>
<!-- DEVEL_IMG&#45;&gt;BUILD_IMG -->
<g id="edge2" class="edge">
<title>DEVEL_IMG&#45;&gt;BUILD_IMG</title>
<path fill="none" stroke="black" d="M747,-626.14C747,-617.82 747,-608.41 747,-599.47"/>
<polygon fill="black" stroke="black" points="750.5,-599.3 747,-589.3 743.5,-599.3 750.5,-599.3"/>
</g>
<!-- DEVEL_TAR -->
<g id="node15" class="node">
<title>DEVEL_TAR</title>
<polygon fill="royalblue" stroke="black" points="116.5,-52 15.5,-52 15.5,-16 122.5,-16 122.5,-46 116.5,-52"/>
<polyline fill="none" stroke="black" points="116.5,-52 116.5,-46 "/>
<polyline fill="none" stroke="black" points="122.5,-46 116.5,-46 "/>
<text text-anchor="middle" x="69" y="-30.3" font-family="Times,serif" font-size="14.00">docker_devel.tar</text>
</g>
<!-- DEVEL_IMG&#45;&gt;DEVEL_TAR -->
<g id="edge15" class="edge">
<title>DEVEL_IMG&#45;&gt;DEVEL_TAR</title>
<path fill="none" stroke="red" d="M664.79,-649.99C474.14,-645.69 18,-628.65 18,-564.12 18,-564.12 18,-564.12 18,-149.12 18,-116.51 35.58,-82.85 50.09,-60.62"/>
<polygon fill="red" stroke="red" points="53.15,-62.36 55.87,-52.12 47.36,-58.43 53.15,-62.36"/>
<text text-anchor="middle" x="92" y="-352.93" font-family="Times,serif" font-size="14.00">make save_&lt;distro&gt;_devel</text>
</g>
<!-- TEST_IMG -->
<g id="node9" class="node">
<title>TEST_IMG</title>
<path fill="royalblue" stroke="black" d="M818.5,-481.35C818.5,-483.99 784.21,-486.13 742,-486.13 699.79,-486.13 665.5,-483.99 665.5,-481.35 665.5,-481.35 665.5,-438.4 665.5,-438.4 665.5,-435.76 699.79,-433.62 742,-433.62 784.21,-433.62 818.5,-435.76 818.5,-438.4 818.5,-438.4 818.5,-481.35 818.5,-481.35"/>
<path fill="none" stroke="black" d="M818.5,-481.35C818.5,-478.72 784.21,-476.58 742,-476.58 699.79,-476.58 665.5,-478.72 665.5,-481.35"/>
<text text-anchor="middle" x="742" y="-463.68" font-family="Times,serif" font-size="14.00">java&#45;native:&lt;distro&gt;_test</text>
<text text-anchor="middle" x="742" y="-448.68" font-family="Times,serif" font-size="14.00">test</text>
</g>
<!-- BUILD_IMG&#45;&gt;TEST_IMG -->
<g id="edge3" class="edge">
<title>BUILD_IMG&#45;&gt;TEST_IMG</title>
<path fill="none" stroke="black" d="M745.75,-536.84C745.15,-524.63 744.42,-509.79 743.76,-496.47"/>
<polygon fill="black" stroke="black" points="747.24,-496.01 743.25,-486.19 740.25,-496.35 747.24,-496.01"/>
</g>
<!-- BUILD_IMG&#45;&gt;INSTALL_ENV_IMG -->
<g id="edge5" class="edge">
<title>BUILD_IMG&#45;&gt;INSTALL_ENV_IMG</title>
<path fill="none" stroke="black" stroke-dasharray="5,2" d="M793.71,-536.84C819.46,-522.89 851.6,-505.49 878.62,-490.86"/>
<polygon fill="black" stroke="black" points="880.44,-493.86 887.57,-486.02 877.11,-487.7 880.44,-493.86"/>
<text text-anchor="middle" x="883" y="-507.8" font-family="Times,serif" font-size="14.00">copy install</text>
</g>
<!-- BUILD_TAR -->
<g id="node16" class="node">
<title>BUILD_TAR</title>
<polygon fill="royalblue" stroke="black" points="241,-52 141,-52 141,-16 247,-16 247,-46 241,-52"/>
<polyline fill="none" stroke="black" points="241,-52 241,-46 "/>
<polyline fill="none" stroke="black" points="247,-46 241,-46 "/>
<text text-anchor="middle" x="194" y="-30.3" font-family="Times,serif" font-size="14.00">docker_build.tar</text>
</g>
<!-- BUILD_IMG&#45;&gt;BUILD_TAR -->
<g id="edge16" class="edge">
<title>BUILD_IMG&#45;&gt;BUILD_TAR</title>
<path fill="none" stroke="red" d="M666,-555.57C512.4,-542.04 194,-508.27 194,-460.88 194,-460.88 194,-460.88 194,-149.12 194,-119.36 194,-85.24 194,-62.11"/>
<polygon fill="red" stroke="red" points="197.5,-62.01 194,-52.01 190.5,-62.02 197.5,-62.01"/>
<text text-anchor="middle" x="267.5" y="-301.3" font-family="Times,serif" font-size="14.00">make save_&lt;distro&gt;_build</text>
</g>
<!-- TEST_TAR -->
<g id="node17" class="node">
<title>TEST_TAR</title>
<polygon fill="royalblue" stroke="black" points="356.5,-52 265.5,-52 265.5,-16 362.5,-16 362.5,-46 356.5,-52"/>
<polyline fill="none" stroke="black" points="356.5,-52 356.5,-46 "/>
<polyline fill="none" stroke="black" points="362.5,-46 356.5,-46 "/>
<text text-anchor="middle" x="314" y="-30.3" font-family="Times,serif" font-size="14.00">docker_test.tar</text>
</g>
<!-- TEST_IMG&#45;&gt;TEST_TAR -->
<g id="edge17" class="edge">
<title>TEST_IMG&#45;&gt;TEST_TAR</title>
<path fill="none" stroke="red" d="M665.28,-456.74C614.64,-452.69 548.1,-442.18 495,-415.75 415.54,-376.2 390.07,-358.18 349,-279.5 311.63,-207.91 310.3,-109.33 312.21,-62.21"/>
<polygon fill="red" stroke="red" points="315.71,-62.34 312.7,-52.18 308.72,-61.99 315.71,-62.34"/>
<text text-anchor="middle" x="418" y="-249.68" font-family="Times,serif" font-size="14.00">make save_&lt;distro&gt;_test</text>
</g>
<!-- INSTALL_ENV_IMG&#45;&gt;INSTALL_DEVEL_IMG -->
<g id="edge6" class="edge">
<title>INSTALL_ENV_IMG&#45;&gt;INSTALL_DEVEL_IMG</title>
<path fill="none" stroke="black" d="M933,-433.59C932.52,-421.38 931.93,-406.54 931.41,-393.22"/>
<polygon fill="black" stroke="black" points="934.89,-392.8 931,-382.94 927.9,-393.07 934.89,-392.8"/>
</g>
<!-- INSTALL_ENV_TAR -->
<g id="node18" class="node">
<title>INSTALL_ENV_TAR</title>
<polygon fill="royalblue" stroke="black" points="511.5,-52 380.5,-52 380.5,-16 517.5,-16 517.5,-46 511.5,-52"/>
<polyline fill="none" stroke="black" points="511.5,-52 511.5,-46 "/>
<polyline fill="none" stroke="black" points="517.5,-46 511.5,-46 "/>
<text text-anchor="middle" x="449" y="-30.3" font-family="Times,serif" font-size="14.00">docker_install_env.tar</text>
</g>
<!-- INSTALL_ENV_IMG&#45;&gt;INSTALL_ENV_TAR -->
<g id="edge18" class="edge">
<title>INSTALL_ENV_IMG&#45;&gt;INSTALL_ENV_TAR</title>
<path fill="none" stroke="red" d="M836.76,-435.79C711.31,-405.98 509,-357.89 509,-357.62 509,-357.62 509,-357.62 509,-149.12 509,-115.38 488.2,-81.81 471.09,-59.9"/>
<polygon fill="red" stroke="red" points="473.78,-57.66 464.76,-52.1 468.34,-62.07 473.78,-57.66"/>
<text text-anchor="middle" x="598" y="-249.68" font-family="Times,serif" font-size="14.00">make save_&lt;distro&gt;_install_env</text>
</g>
<!-- INSTALL_BUILD_IMG -->
<g id="node12" class="node">
<title>INSTALL_BUILD_IMG</title>
<path fill="royalblue" stroke="black" d="M1031,-274.85C1031,-277.49 985.73,-279.63 930,-279.63 874.27,-279.63 829,-277.49 829,-274.85 829,-274.85 829,-231.9 829,-231.9 829,-229.26 874.27,-227.12 930,-227.12 985.73,-227.12 1031,-229.26 1031,-231.9 1031,-231.9 1031,-274.85 1031,-274.85"/>
<path fill="none" stroke="black" d="M1031,-274.85C1031,-272.22 985.73,-270.08 930,-270.08 874.27,-270.08 829,-272.22 829,-274.85"/>
<text text-anchor="middle" x="930" y="-257.18" font-family="Times,serif" font-size="14.00">java&#45;native:&lt;distro&gt;_install_build</text>
<text text-anchor="middle" x="930" y="-242.18" font-family="Times,serif" font-size="14.00">install_build</text>
</g>
<!-- INSTALL_DEVEL_IMG&#45;&gt;INSTALL_BUILD_IMG -->
<g id="edge7" class="edge">
<title>INSTALL_DEVEL_IMG&#45;&gt;INSTALL_BUILD_IMG</title>
<path fill="none" stroke="black" d="M930,-330.34C930,-318.13 930,-303.29 930,-289.97"/>
<polygon fill="black" stroke="black" points="933.5,-289.69 930,-279.69 926.5,-289.69 933.5,-289.69"/>
</g>
<!-- INSTALL_DEVEL_TAR -->
<g id="node19" class="node">
<title>INSTALL_DEVEL_TAR</title>
<polygon fill="royalblue" stroke="black" points="676.5,-52 535.5,-52 535.5,-16 682.5,-16 682.5,-46 676.5,-52"/>
<polyline fill="none" stroke="black" points="676.5,-52 676.5,-46 "/>
<polyline fill="none" stroke="black" points="682.5,-46 676.5,-46 "/>
<text text-anchor="middle" x="609" y="-30.3" font-family="Times,serif" font-size="14.00">docker_install_devel.tar</text>
</g>
<!-- INSTALL_DEVEL_IMG&#45;&gt;INSTALL_DEVEL_TAR -->
<g id="edge19" class="edge">
<title>INSTALL_DEVEL_IMG&#45;&gt;INSTALL_DEVEL_TAR</title>
<path fill="none" stroke="red" d="M892.46,-330.4C846.83,-300.96 766.55,-253.05 691,-227.25 644.95,-211.53 614.45,-246.38 583,-209.25 547.61,-167.47 574.42,-98.92 593.75,-61.47"/>
<polygon fill="red" stroke="red" points="597.08,-62.68 598.71,-52.21 590.9,-59.38 597.08,-62.68"/>
<text text-anchor="middle" x="677" y="-198.05" font-family="Times,serif" font-size="14.00">make save_&lt;distro&gt;_install_devel</text>
</g>
<!-- INSTALL_TEST_IMG -->
<g id="node13" class="node">
<title>INSTALL_TEST_IMG</title>
<path fill="royalblue" stroke="black" d="M1030.5,-171.6C1030.5,-174.24 987.25,-176.38 934,-176.38 880.75,-176.38 837.5,-174.24 837.5,-171.6 837.5,-171.6 837.5,-128.65 837.5,-128.65 837.5,-126.01 880.75,-123.87 934,-123.87 987.25,-123.87 1030.5,-126.01 1030.5,-128.65 1030.5,-128.65 1030.5,-171.6 1030.5,-171.6"/>
<path fill="none" stroke="black" d="M1030.5,-171.6C1030.5,-168.97 987.25,-166.83 934,-166.83 880.75,-166.83 837.5,-168.97 837.5,-171.6"/>
<text text-anchor="middle" x="934" y="-153.93" font-family="Times,serif" font-size="14.00">java&#45;native:&lt;distro&gt;_install_test</text>
<text text-anchor="middle" x="934" y="-138.93" font-family="Times,serif" font-size="14.00">install_test</text>
</g>
<!-- INSTALL_BUILD_IMG&#45;&gt;INSTALL_TEST_IMG -->
<g id="edge8" class="edge">
<title>INSTALL_BUILD_IMG&#45;&gt;INSTALL_TEST_IMG</title>
<path fill="none" stroke="black" d="M931,-227.09C931.48,-214.88 932.07,-200.04 932.59,-186.72"/>
<polygon fill="black" stroke="black" points="936.1,-186.57 933,-176.44 929.11,-186.3 936.1,-186.57"/>
</g>
<!-- INSTALL_BUILD_TAR -->
<g id="node20" class="node">
<title>INSTALL_BUILD_TAR</title>
<polygon fill="royalblue" stroke="black" points="841,-52 701,-52 701,-16 847,-16 847,-46 841,-52"/>
<polyline fill="none" stroke="black" points="841,-52 841,-46 "/>
<polyline fill="none" stroke="black" points="847,-46 841,-46 "/>
<text text-anchor="middle" x="774" y="-30.3" font-family="Times,serif" font-size="14.00">docker_install_build.tar</text>
</g>
<!-- INSTALL_BUILD_IMG&#45;&gt;INSTALL_BUILD_TAR -->
<g id="edge20" class="edge">
<title>INSTALL_BUILD_IMG&#45;&gt;INSTALL_BUILD_TAR</title>
<path fill="none" stroke="red" d="M872.11,-227.13C843.39,-215.53 807.89,-202.53 775,-194.25 746.08,-186.97 661.62,-198.71 642,-176.25 624.38,-156.09 628.92,-139.37 642,-116 644.68,-111.21 697.72,-79.53 735.73,-57.25"/>
<polygon fill="red" stroke="red" points="737.69,-60.16 744.55,-52.09 734.16,-54.11 737.69,-60.16"/>
<text text-anchor="middle" x="735.5" y="-146.43" font-family="Times,serif" font-size="14.00">make save_&lt;distro&gt;_install_build</text>
</g>
<!-- INSTALL_TEST_TAR -->
<g id="node21" class="node">
<title>INSTALL_TEST_TAR</title>
<polygon fill="royalblue" stroke="black" points="996.5,-52 865.5,-52 865.5,-16 1002.5,-16 1002.5,-46 996.5,-52"/>
<polyline fill="none" stroke="black" points="996.5,-52 996.5,-46 "/>
<polyline fill="none" stroke="black" points="1002.5,-46 996.5,-46 "/>
<text text-anchor="middle" x="934" y="-30.3" font-family="Times,serif" font-size="14.00">docker_install_test.tar</text>
</g>
<!-- INSTALL_TEST_IMG&#45;&gt;INSTALL_TEST_TAR -->
<g id="edge21" class="edge">
<title>INSTALL_TEST_IMG&#45;&gt;INSTALL_TEST_TAR</title>
<path fill="none" stroke="red" d="M934,-123.8C934,-105.57 934,-81.01 934,-62.34"/>
<polygon fill="red" stroke="red" points="937.5,-62.12 934,-52.12 930.5,-62.12 937.5,-62.12"/>
<text text-anchor="middle" x="1023" y="-94.8" font-family="Times,serif" font-size="14.00">make save_&lt;distro&gt;_install_test</text>
</g>
</g>
</svg>
