<?xml version="1.0" encoding="UTF-8" standalone="no"?>
<!DOCTYPE svg PUBLIC "-//W3C//DTD SVG 1.1//EN"
 "http://www.w3.org/Graphics/SVG/1.1/DTD/svg11.dtd">
<!-- Generated by graphviz version 2.46.0 (0)
 -->
<!-- Title: DockerDeps Pages: 1 -->
<svg width="1627pt" height="693pt"
 viewBox="0.00 0.00 1627.00 693.25" xmlns="http://www.w3.org/2000/svg" xmlns:xlink="http://www.w3.org/1999/xlink">
<g id="graph0" class="graph" transform="scale(1 1) rotate(0) translate(4 689.25)">
<title>DockerDeps</title>
<polygon fill="white" stroke="transparent" points="-4,4 -4,-689.25 1623,-689.25 1623,4 -4,4"/>
<g id="clust1" class="cluster">
<title>clusterDockerfile</title>
<polygon fill="none" stroke="royalblue" points="199,-116 199,-606.25 1166,-606.25 1166,-116 199,-116"/>
<text text-anchor="middle" x="682.5" y="-591.05" font-family="Times,serif" font-size="14.00">docker/&lt;distro&gt;/Dockerfile</text>
</g>
<g id="clust2" class="cluster">
<title>clusterCache</title>
<polygon fill="none" stroke="royalblue" points="33,-8 33,-83 1408,-83 1408,-8 33,-8"/>
<text text-anchor="middle" x="720.5" y="-67.8" font-family="Times,serif" font-size="14.00">cache/&lt;distro&gt;/</text>
</g>
<!-- DISTRO_IMG -->
<g id="node1" class="node">
<title>DISTRO_IMG</title>
<path fill="royalblue" stroke="black" d="M973,-680.98C973,-682.78 944.31,-684.25 909,-684.25 873.69,-684.25 845,-682.78 845,-680.98 845,-680.98 845,-651.52 845,-651.52 845,-649.72 873.69,-648.25 909,-648.25 944.31,-648.25 973,-649.72 973,-651.52 973,-651.52 973,-680.98 973,-680.98"/>
<path fill="none" stroke="black" d="M973,-680.98C973,-679.17 944.31,-677.7 909,-677.7 873.69,-677.7 845,-679.17 845,-680.98"/>
<text text-anchor="middle" x="909" y="-662.55" font-family="Times,serif" font-size="14.00">&lt;distro&gt;:latest</text>
</g>
<!-- ENV_IMG -->
<g id="node5" class="node">
<title>ENV_IMG</title>
<path fill="royalblue" stroke="black" d="M1157.5,-570.6C1157.5,-573.24 1113.35,-575.38 1059,-575.38 1004.65,-575.38 960.5,-573.24 960.5,-570.6 960.5,-570.6 960.5,-527.65 960.5,-527.65 960.5,-525.01 1004.65,-522.87 1059,-522.87 1113.35,-522.87 1157.5,-525.01 1157.5,-527.65 1157.5,-527.65 1157.5,-570.6 1157.5,-570.6"/>
<path fill="none" stroke="black" d="M1157.5,-570.6C1157.5,-567.97 1113.35,-565.83 1059,-565.83 1004.65,-565.83 960.5,-567.97 960.5,-570.6"/>
<text text-anchor="middle" x="1059" y="-552.92" font-family="Times,serif" font-size="14.00">java&#45;native:&lt;distro&gt;_env</text>
<text text-anchor="middle" x="1059" y="-537.92" font-family="Times,serif" font-size="14.00">env</text>
</g>
<!-- DISTRO_IMG&#45;&gt;ENV_IMG -->
<g id="edge6" class="edge">
<title>DISTRO_IMG&#45;&gt;ENV_IMG</title>
<path fill="none" stroke="black" d="M931.46,-648.01C954.29,-630.49 990.19,-602.94 1018.09,-581.52"/>
<polygon fill="black" stroke="black" points="1020.3,-584.24 1026.1,-575.38 1016.04,-578.69 1020.3,-584.24"/>
</g>
<!-- PKG -->
<g id="node2" class="node">
<title>PKG</title>
<polygon fill="royalblue" stroke="black" points="1126.5,-685.25 995.5,-685.25 991.5,-681.25 991.5,-647.25 1122.5,-647.25 1126.5,-651.25 1126.5,-685.25"/>
<polyline fill="none" stroke="black" points="1122.5,-681.25 991.5,-681.25 "/>
<polyline fill="none" stroke="black" points="1122.5,-681.25 1122.5,-647.25 "/>
<polyline fill="none" stroke="black" points="1122.5,-681.25 1126.5,-685.25 "/>
<text text-anchor="middle" x="1059" y="-670.05" font-family="Times,serif" font-size="14.00">Build packages</text>
<text text-anchor="middle" x="1059" y="-655.05" font-family="Times,serif" font-size="14.00">e.g. cmake, g++</text>
</g>
<!-- PKG&#45;&gt;ENV_IMG -->
<g id="edge7" class="edge">
<title>PKG&#45;&gt;ENV_IMG</title>
<path fill="none" stroke="black" stroke-dasharray="5,2" d="M1059,-647.01C1059,-630.59 1059,-606.01 1059,-585.72"/>
<polygon fill="black" stroke="black" points="1062.5,-585.56 1059,-575.56 1055.5,-585.56 1062.5,-585.56"/>
<text text-anchor="middle" x="1081.5" y="-618.05" font-family="Times,serif" font-size="14.00">install</text>
</g>
<!-- JAVAPKG -->
<g id="node3" class="node">
<title>JAVAPKG</title>
<polygon fill="crimson" stroke="black" points="1269.5,-685.25 1148.5,-685.25 1144.5,-681.25 1144.5,-647.25 1265.5,-647.25 1269.5,-651.25 1269.5,-685.25"/>
<polyline fill="none" stroke="black" points="1265.5,-681.25 1144.5,-681.25 "/>
<polyline fill="none" stroke="black" points="1265.5,-681.25 1265.5,-647.25 "/>
<polyline fill="none" stroke="black" points="1265.5,-681.25 1269.5,-685.25 "/>
<text text-anchor="middle" x="1207" y="-670.05" font-family="Times,serif" font-size="14.00">Java packages</text>
<text text-anchor="middle" x="1207" y="-655.05" font-family="Times,serif" font-size="14.00">e.g. jdk, maven</text>
</g>
<!-- JAVAPKG&#45;&gt;ENV_IMG -->
<g id="edge8" class="edge">
<title>JAVAPKG&#45;&gt;ENV_IMG</title>
<path fill="none" stroke="black" stroke-dasharray="5,2" d="M1183.55,-647.01C1161.02,-629.48 1126.52,-602.64 1099.53,-581.66"/>
<polygon fill="black" stroke="black" points="1101.46,-578.72 1091.42,-575.35 1097.17,-584.25 1101.46,-578.72"/>
<text text-anchor="middle" x="1181.5" y="-618.05" font-family="Times,serif" font-size="14.00">install</text>
</g>
<!-- SRC -->
<g id="node4" class="node">
<title>SRC</title>
<polygon fill="royalblue" stroke="black" points="1248.5,-567.12 1245.5,-571.12 1224.5,-571.12 1221.5,-567.12 1175.5,-567.12 1175.5,-531.12 1248.5,-531.12 1248.5,-567.12"/>
<text text-anchor="middle" x="1212" y="-545.42" font-family="Times,serif" font-size="14.00">git repo</text>
</g>
<!-- DEVEL_IMG -->
<g id="node6" class="node">
<title>DEVEL_IMG</title>
<path fill="royalblue" stroke="black" d="M1158,-467.35C1158,-469.99 1110.94,-472.13 1053,-472.13 995.06,-472.13 948,-469.99 948,-467.35 948,-467.35 948,-424.4 948,-424.4 948,-421.76 995.06,-419.62 1053,-419.62 1110.94,-419.62 1158,-421.76 1158,-424.4 1158,-424.4 1158,-467.35 1158,-467.35"/>
<path fill="none" stroke="black" d="M1158,-467.35C1158,-464.72 1110.94,-462.58 1053,-462.58 995.06,-462.58 948,-464.72 948,-467.35"/>
<text text-anchor="middle" x="1053" y="-449.68" font-family="Times,serif" font-size="14.00">java&#45;native:&lt;distro&gt;_devel</text>
<text text-anchor="middle" x="1053" y="-434.68" font-family="Times,serif" font-size="14.00">devel</text>
</g>
<!-- SRC&#45;&gt;DEVEL_IMG -->
<g id="edge9" class="edge">
<title>SRC&#45;&gt;DEVEL_IMG</title>
<path fill="none" stroke="black" stroke-dasharray="5,2" d="M1185.03,-530.95C1162.16,-516.39 1128.8,-495.15 1101.34,-477.66"/>
<polygon fill="black" stroke="black" points="1102.97,-474.54 1092.65,-472.12 1099.21,-480.45 1102.97,-474.54"/>
<text text-anchor="middle" x="1159" y="-493.8" font-family="Times,serif" font-size="14.00">copy</text>
</g>
<!-- ENV_IMG&#45;&gt;DEVEL_IMG -->
<g id="edge1" class="edge">
<title>ENV_IMG&#45;&gt;DEVEL_IMG</title>
<path fill="none" stroke="black" d="M1057.5,-522.84C1056.78,-510.63 1055.9,-495.79 1055.11,-482.47"/>
<polygon fill="black" stroke="black" points="1058.59,-481.97 1054.5,-472.19 1051.6,-482.38 1058.59,-481.97"/>
</g>
<!-- INSTALL_DEVEL_IMG -->
<g id="node10" class="node">
<title>INSTALL_DEVEL_IMG</title>
<path fill="royalblue" stroke="black" d="M1157.5,-274.85C1157.5,-277.49 1099.01,-279.63 1027,-279.63 954.99,-279.63 896.5,-277.49 896.5,-274.85 896.5,-274.85 896.5,-231.9 896.5,-231.9 896.5,-229.26 954.99,-227.12 1027,-227.12 1099.01,-227.12 1157.5,-229.26 1157.5,-231.9 1157.5,-231.9 1157.5,-274.85 1157.5,-274.85"/>
<path fill="none" stroke="black" d="M1157.5,-274.85C1157.5,-272.22 1099.01,-270.08 1027,-270.08 954.99,-270.08 896.5,-272.22 896.5,-274.85"/>
<text text-anchor="middle" x="1027" y="-257.18" font-family="Times,serif" font-size="14.00">java&#45;native:&lt;distro&gt;_install_devel</text>
<text text-anchor="middle" x="1027" y="-242.18" font-family="Times,serif" font-size="14.00">install_devel</text>
</g>
<!-- ENV_IMG&#45;&gt;INSTALL_DEVEL_IMG -->
<g id="edge4" class="edge">
<title>ENV_IMG&#45;&gt;INSTALL_DEVEL_IMG</title>
<path fill="none" stroke="black" d="M995.4,-523.26C973.49,-511.26 951.36,-494.48 939,-472 908.7,-416.89 912.85,-387.69 939,-330.5 947.01,-312.98 961.26,-297.96 975.99,-285.99"/>
<polygon fill="black" stroke="black" points="978.41,-288.55 984.19,-279.66 974.13,-283 978.41,-288.55"/>
</g>
<!-- ENV_TAR -->
<g id="node13" class="node">
<title>ENV_TAR</title>
<polygon fill="royalblue" stroke="black" points="682,-52 568,-52 568,-16 688,-16 688,-46 682,-52"/>
<polyline fill="none" stroke="black" points="682,-52 682,-46 "/>
<polyline fill="none" stroke="black" points="688,-46 682,-46 "/>
<text text-anchor="middle" x="628" y="-30.3" font-family="Times,serif" font-size="14.00">docker_env.tar</text>
</g>
<!-- ENV_IMG&#45;&gt;ENV_TAR -->
<g id="edge10" class="edge">
<title>ENV_IMG&#45;&gt;ENV_TAR</title>
<path fill="none" stroke="red" d="M964.47,-524.71C863.55,-499.04 718,-459.79 718,-446.88 718,-446.88 718,-446.88 718,-149.12 718,-111.56 687.56,-79.08 662.08,-58.49"/>
<polygon fill="red" stroke="red" points="664.07,-55.6 654.03,-52.23 659.78,-61.13 664.07,-55.6"/>
<text text-anchor="middle" x="808.5" y="-301.3" font-family="Times,serif" font-size="14.00">make save_&lt;distro&gt;_env</text>
</g>
<!-- BUILD_IMG -->
<g id="node7" class="node">
<title>BUILD_IMG</title>
<path fill="royalblue" stroke="black" d="M1156,-378.1C1156,-380.74 1109.39,-382.88 1052,-382.88 994.61,-382.88 948,-380.74 948,-378.1 948,-378.1 948,-335.15 948,-335.15 948,-332.51 994.61,-330.37 1052,-330.37 1109.39,-330.37 1156,-332.51 1156,-335.15 1156,-335.15 1156,-378.1 1156,-378.1"/>
<path fill="none" stroke="black" d="M1156,-378.1C1156,-375.47 1109.39,-373.33 1052,-373.33 994.61,-373.33 948,-375.47 948,-378.1"/>
<text text-anchor="middle" x="1052" y="-360.43" font-family="Times,serif" font-size="14.00">java&#45;native:&lt;distro&gt;_build</text>
<text text-anchor="middle" x="1052" y="-345.43" font-family="Times,serif" font-size="14.00">build</text>
</g>
<!-- DEVEL_IMG&#45;&gt;BUILD_IMG -->
<g id="edge2" class="edge">
<title>DEVEL_IMG&#45;&gt;BUILD_IMG</title>
<path fill="none" stroke="black" d="M1052.71,-419.64C1052.62,-411.32 1052.51,-401.91 1052.41,-392.97"/>
<polygon fill="black" stroke="black" points="1055.9,-392.76 1052.29,-382.8 1048.9,-392.84 1055.9,-392.76"/>
</g>
<!-- DEVEL_TAR -->
<g id="node14" class="node">
<title>DEVEL_TAR</title>
<polygon fill="royalblue" stroke="black" points="1393.5,-52 1264.5,-52 1264.5,-16 1399.5,-16 1399.5,-46 1393.5,-52"/>
<polyline fill="none" stroke="black" points="1393.5,-52 1393.5,-46 "/>
<polyline fill="none" stroke="black" points="1399.5,-46 1393.5,-46 "/>
<text text-anchor="middle" x="1332" y="-30.3" font-family="Times,serif" font-size="14.00">docker_devel.tar</text>
</g>
<!-- DEVEL_IMG&#45;&gt;DEVEL_TAR -->
<g id="edge11" class="edge">
<title>DEVEL_IMG&#45;&gt;DEVEL_TAR</title>
<path fill="none" stroke="red" d="M1158.39,-440.61C1268.69,-433.18 1426,-412.91 1426,-357.62 1426,-357.62 1426,-357.62 1426,-149.12 1426,-110.86 1394.12,-78.46 1367.5,-58.07"/>
<polygon fill="red" stroke="red" points="1369.57,-55.25 1359.44,-52.13 1365.42,-60.88 1369.57,-55.25"/>
<text text-anchor="middle" x="1522.5" y="-249.68" font-family="Times,serif" font-size="14.00">make save_&lt;distro&gt;_devel</text>
</g>
<!-- BUILD_IMG&#45;&gt;INSTALL_DEVEL_IMG -->
<g id="edge3" class="edge">
<title>BUILD_IMG&#45;&gt;INSTALL_DEVEL_IMG</title>
<path fill="none" stroke="black" stroke-dasharray="5,2" d="M1045.76,-330.34C1042.71,-318.01 1039,-302.99 1035.69,-289.57"/>
<polygon fill="black" stroke="black" points="1039.05,-288.56 1033.25,-279.69 1032.25,-290.24 1039.05,-288.56"/>
<text text-anchor="middle" x="1081" y="-301.3" font-family="Times,serif" font-size="14.00">copy install</text>
</g>
<!-- BUILD_TAR -->
<g id="node15" class="node">
<title>BUILD_TAR</title>
<polygon fill="royalblue" stroke="black" points="833.5,-52 706.5,-52 706.5,-16 839.5,-16 839.5,-46 833.5,-52"/>
<polyline fill="none" stroke="black" points="833.5,-52 833.5,-46 "/>
<polyline fill="none" stroke="black" points="839.5,-46 833.5,-46 "/>
<text text-anchor="middle" x="773" y="-30.3" font-family="Times,serif" font-size="14.00">docker_build.tar</text>
</g>
<!-- BUILD_IMG&#45;&gt;BUILD_TAR -->
<g id="edge12" class="edge">
<title>BUILD_IMG&#45;&gt;BUILD_TAR</title>
<path fill="none" stroke="red" d="M982.18,-330.87C951.62,-318.16 916.34,-300.83 888,-279.5 854.96,-254.63 847.11,-245.38 827,-209.25 800.2,-161.1 784.89,-97.9 777.82,-62.36"/>
<polygon fill="red" stroke="red" points="781.21,-61.43 775.89,-52.26 774.33,-62.74 781.21,-61.43"/>
<text text-anchor="middle" x="922.5" y="-198.05" font-family="Times,serif" font-size="14.00">make save_&lt;distro&gt;_build</text>
</g>
<!-- TEST_IMG -->
<g id="node8" class="node">
<title>TEST_IMG</title>
<path fill="royalblue" stroke="black" d="M407,-570.6C407,-573.24 362.18,-575.38 307,-575.38 251.82,-575.38 207,-573.24 207,-570.6 207,-570.6 207,-527.65 207,-527.65 207,-525.01 251.82,-522.87 307,-522.87 362.18,-522.87 407,-525.01 407,-527.65 407,-527.65 407,-570.6 407,-570.6"/>
<path fill="none" stroke="black" d="M407,-570.6C407,-567.97 362.18,-565.83 307,-565.83 251.82,-565.83 207,-567.97 207,-570.6"/>
<text text-anchor="middle" x="307" y="-552.92" font-family="Times,serif" font-size="14.00">java&#45;native:&lt;distro&gt;_test</text>
<text text-anchor="middle" x="307" y="-537.92" font-family="Times,serif" font-size="14.00">test</text>
</g>
<!-- TEST_TAR -->
<g id="node16" class="node">
<title>TEST_TAR</title>
<polygon fill="royalblue" stroke="black" points="160.5,-52 41.5,-52 41.5,-16 166.5,-16 166.5,-46 160.5,-52"/>
<polyline fill="none" stroke="black" points="160.5,-52 160.5,-46 "/>
<polyline fill="none" stroke="black" points="166.5,-46 160.5,-46 "/>
<text text-anchor="middle" x="104" y="-30.3" font-family="Times,serif" font-size="14.00">docker_test.tar</text>
</g>
<!-- TEST_IMG&#45;&gt;TEST_TAR -->
<g id="edge13" class="edge">
<title>TEST_IMG&#45;&gt;TEST_TAR</title>
<path fill="none" stroke="red" d="M206.9,-534.54C117.31,-519.48 0,-491.28 0,-446.88 0,-446.88 0,-446.88 0,-149.12 0,-109.48 34.71,-77.55 64.03,-57.65"/>
<polygon fill="red" stroke="red" points="66.05,-60.51 72.51,-52.12 62.23,-54.65 66.05,-60.51"/>
<text text-anchor="middle" x="91.5" y="-301.3" font-family="Times,serif" font-size="14.00">make save_&lt;distro&gt;_test</text>
</g>
<!-- INSTALL_ENV_IMG -->
<g id="node9" class="node">
<title>INSTALL_ENV_IMG</title>
<path fill="royalblue" stroke="black" d="M673,-570.6C673,-573.24 617.42,-575.38 549,-575.38 480.58,-575.38 425,-573.24 425,-570.6 425,-570.6 425,-527.65 425,-527.65 425,-525.01 480.58,-522.87 549,-522.87 617.42,-522.87 673,-525.01 673,-527.65 673,-527.65 673,-570.6 673,-570.6"/>
<path fill="none" stroke="black" d="M673,-570.6C673,-567.97 617.42,-565.83 549,-565.83 480.58,-565.83 425,-567.97 425,-570.6"/>
<text text-anchor="middle" x="549" y="-552.92" font-family="Times,serif" font-size="14.00">java&#45;native:&lt;distro&gt;_install_env</text>
<text text-anchor="middle" x="549" y="-537.92" font-family="Times,serif" font-size="14.00">install_env</text>
</g>
<!-- INSTALL_ENV_TAR -->
<g id="node17" class="node">
<title>INSTALL_ENV_TAR</title>
<polygon fill="royalblue" stroke="black" points="349.5,-52 184.5,-52 184.5,-16 355.5,-16 355.5,-46 349.5,-52"/>
<polyline fill="none" stroke="black" points="349.5,-52 349.5,-46 "/>
<polyline fill="none" stroke="black" points="355.5,-46 349.5,-46 "/>
<text text-anchor="middle" x="270" y="-30.3" font-family="Times,serif" font-size="14.00">docker_install_env.tar</text>
</g>
<!-- INSTALL_ENV_IMG&#45;&gt;INSTALL_ENV_TAR -->
<g id="edge14" class="edge">
<title>INSTALL_ENV_IMG&#45;&gt;INSTALL_ENV_TAR</title>
<path fill="none" stroke="red" d="M431.92,-524.72C332.55,-503.18 206,-471.01 206,-446.88 206,-446.88 206,-446.88 206,-149.12 206,-115.08 227.93,-81.79 246.12,-60.03"/>
<polygon fill="red" stroke="red" points="248.93,-62.13 252.85,-52.28 243.65,-57.54 248.93,-62.13"/>
<text text-anchor="middle" x="322" y="-301.3" font-family="Times,serif" font-size="14.00">make save_&lt;distro&gt;_install_env</text>
</g>
<!-- INSTALL_BUILD_IMG -->
<g id="node11" class="node">
<title>INSTALL_BUILD_IMG</title>
<path fill="royalblue" stroke="black" d="M1117.5,-171.6C1117.5,-174.24 1059.46,-176.38 988,-176.38 916.54,-176.38 858.5,-174.24 858.5,-171.6 858.5,-171.6 858.5,-128.65 858.5,-128.65 858.5,-126.01 916.54,-123.87 988,-123.87 1059.46,-123.87 1117.5,-126.01 1117.5,-128.65 1117.5,-128.65 1117.5,-171.6 1117.5,-171.6"/>
<path fill="none" stroke="black" d="M1117.5,-171.6C1117.5,-168.97 1059.46,-166.83 988,-166.83 916.54,-166.83 858.5,-168.97 858.5,-171.6"/>
<text text-anchor="middle" x="988" y="-153.93" font-family="Times,serif" font-size="14.00">java&#45;native:&lt;distro&gt;_install_build</text>
<text text-anchor="middle" x="988" y="-138.93" font-family="Times,serif" font-size="14.00">install_build</text>
</g>
<!-- INSTALL_DEVEL_IMG&#45;&gt;INSTALL_BUILD_IMG -->
<g id="edge5" class="edge">
<title>INSTALL_DEVEL_IMG&#45;&gt;INSTALL_BUILD_IMG</title>
<path fill="none" stroke="black" d="M1027.96,-227.04C1027.57,-216.58 1026.06,-204.52 1022,-194.25 1020.77,-191.15 1019.25,-188.09 1017.52,-185.11"/>
<polygon fill="black" stroke="black" points="1020.29,-182.95 1011.88,-176.51 1014.44,-186.79 1020.29,-182.95"/>
</g>
<!-- INSTALL_DEVEL_TAR -->
<g id="node18" class="node">
<title>INSTALL_DEVEL_TAR</title>
<polygon fill="royalblue" stroke="black" points="1240,-52 1060,-52 1060,-16 1246,-16 1246,-46 1240,-52"/>
<polyline fill="none" stroke="black" points="1240,-52 1240,-46 "/>
<polyline fill="none" stroke="black" points="1246,-46 1240,-46 "/>
<text text-anchor="middle" x="1153" y="-30.3" font-family="Times,serif" font-size="14.00">docker_install_devel.tar</text>
</g>
<!-- INSTALL_DEVEL_IMG&#45;&gt;INSTALL_DEVEL_TAR -->
<g id="edge15" class="edge">
<title>INSTALL_DEVEL_IMG&#45;&gt;INSTALL_DEVEL_TAR</title>
<path fill="none" stroke="red" d="M1073.91,-227.14C1093.27,-214.39 1114.14,-197.16 1127,-176.25 1148.64,-141.07 1153.16,-92.27 1153.66,-62.21"/>
<polygon fill="red" stroke="red" points="1157.16,-62.06 1153.68,-52.05 1150.16,-62.04 1157.16,-62.06"/>
<text text-anchor="middle" x="1270" y="-146.43" font-family="Times,serif" font-size="14.00">make save_&lt;distro&gt;_install_devel</text>
</g>
<!-- INSTALL_BUILD_TAR -->
<g id="node19" class="node">
<title>INSTALL_BUILD_TAR</title>
<polygon fill="royalblue" stroke="black" points="1036,-52 858,-52 858,-16 1042,-16 1042,-46 1036,-52"/>
<polyline fill="none" stroke="black" points="1036,-52 1036,-46 "/>
<polyline fill="none" stroke="black" points="1042,-46 1036,-46 "/>
<text text-anchor="middle" x="950" y="-30.3" font-family="Times,serif" font-size="14.00">docker_install_build.tar</text>
</g>
<!-- INSTALL_BUILD_IMG&#45;&gt;INSTALL_BUILD_TAR -->
<g id="edge16" class="edge">
<title>INSTALL_BUILD_IMG&#45;&gt;INSTALL_BUILD_TAR</title>
<path fill="none" stroke="red" d="M915.08,-123.92C908.37,-118.95 902.43,-113.04 898,-106 887.74,-89.71 900.18,-72.25 915.47,-58.72"/>
<polygon fill="red" stroke="red" points="918.1,-61.08 923.61,-52.03 913.66,-55.67 918.1,-61.08"/>
<text text-anchor="middle" x="1019" y="-94.8" font-family="Times,serif" font-size="14.00">make save_&lt;distro&gt;_install_build</text>
</g>
<!-- INSTALL_TEST_IMG -->
<g id="node12" class="node">
<title>INSTALL_TEST_IMG</title>
<path fill="royalblue" stroke="black" d="M942.5,-570.6C942.5,-573.24 886.25,-575.38 817,-575.38 747.75,-575.38 691.5,-573.24 691.5,-570.6 691.5,-570.6 691.5,-527.65 691.5,-527.65 691.5,-525.01 747.75,-522.87 817,-522.87 886.25,-522.87 942.5,-525.01 942.5,-527.65 942.5,-527.65 942.5,-570.6 942.5,-570.6"/>
<path fill="none" stroke="black" d="M942.5,-570.6C942.5,-567.97 886.25,-565.83 817,-565.83 747.75,-565.83 691.5,-567.97 691.5,-570.6"/>
<text text-anchor="middle" x="817" y="-552.92" font-family="Times,serif" font-size="14.00">java&#45;native:&lt;distro&gt;_install_test</text>
<text text-anchor="middle" x="817" y="-537.92" font-family="Times,serif" font-size="14.00">install_test</text>
</g>
<!-- INSTALL_TEST_TAR -->
<g id="node20" class="node">
<title>INSTALL_TEST_TAR</title>
<polygon fill="royalblue" stroke="black" points="544,-52 374,-52 374,-16 550,-16 550,-46 544,-52"/>
<polyline fill="none" stroke="black" points="544,-52 544,-46 "/>
<polyline fill="none" stroke="black" points="550,-46 544,-46 "/>
<text text-anchor="middle" x="462" y="-30.3" font-family="Times,serif" font-size="14.00">docker_install_test.tar</text>
</g>
<!-- INSTALL_TEST_IMG&#45;&gt;INSTALL_TEST_TAR -->
<g id="edge17" class="edge">
<title>INSTALL_TEST_IMG&#45;&gt;INSTALL_TEST_TAR</title>
<path fill="none" stroke="red" d="M693.99,-524.8C591.09,-503.54 461,-471.73 461,-446.88 461,-446.88 461,-446.88 461,-149.12 461,-119.36 461.34,-85.23 461.63,-62.11"/>
<polygon fill="red" stroke="red" points="465.13,-62.06 461.76,-52.01 458.13,-61.97 465.13,-62.06"/>
<text text-anchor="middle" x="578" y="-301.3" font-family="Times,serif" font-size="14.00">make save_&lt;distro&gt;_install_test</text>
</g>
</g>
</svg>
