<?xml version="1.0" encoding="UTF-8" standalone="no"?>
<!DOCTYPE svg PUBLIC "-//W3C//DTD SVG 1.1//EN"
 "http://www.w3.org/Graphics/SVG/1.1/DTD/svg11.dtd">
<!-- Generated by graphviz version 2.49.3 (0)
 -->
<!-- Title: CMake Pages: 1 -->
<svg width="632pt" height="865pt"
 viewBox="0.00 0.00 632.00 865.00" xmlns="http://www.w3.org/2000/svg" xmlns:xlink="http://www.w3.org/1999/xlink">
<g id="graph0" class="graph" transform="scale(1 1) rotate(0) translate(4 861)">
<title>CMake</title>
<polygon fill="white" stroke="transparent" points="-4,4 -4,-861 628,-861 628,4 -4,4"/>
<g id="clust1" class="cluster">
<title>clusterLinux</title>
<polygon fill="none" stroke="black" points="8,-8 8,-849 615,-849 615,-8 8,-8"/>
<text text-anchor="middle" x="311.5" y="-833.8" font-family="Times,serif" font-size="14.00">Host</text>
</g>
<g id="clust2" class="cluster">
<title>clusterCPP</title>
<polygon fill="none" stroke="royalblue" points="175,-476 175,-818 495,-818 495,-476 175,-476"/>
<text text-anchor="middle" x="335" y="-802.8" font-family="Times,serif" font-size="14.00">C++</text>
</g>
<g id="clust3" class="cluster">
<title>clusterJAVA</title>
<polygon fill="none" stroke="crimson" points="28,-16 28,-443 464,-443 464,-16 28,-16"/>
<text text-anchor="middle" x="246" y="-427.8" font-family="Times,serif" font-size="14.00">Java</text>
</g>
<!-- SWIG -->
<g id="node1" class="node">
<title>SWIG</title>
<polygon fill="white" stroke="black" points="558,-697 510,-697 510,-661 564,-661 564,-691 558,-697"/>
<polyline fill="none" stroke="black" points="558,-697 558,-691 "/>
<polyline fill="none" stroke="black" points="564,-691 558,-691 "/>
<text text-anchor="middle" x="537" y="-675.3" font-family="Times,serif" font-size="14.00">foo.i</text>
</g>
<!-- WRAPPER_CPP -->
<g id="node5" class="node">
<title>WRAPPER_CPP</title>
<polygon fill="royalblue" stroke="black" points="452.5,-697 315.5,-697 315.5,-661 458.5,-661 458.5,-691 452.5,-697"/>
<polyline fill="none" stroke="black" points="452.5,-697 452.5,-691 "/>
<polyline fill="none" stroke="black" points="458.5,-691 452.5,-691 "/>
<text text-anchor="middle" x="387" y="-675.3" font-family="Times,serif" font-size="14.00">fooJAVA_wrap.cxx</text>
</g>
<!-- SWIG&#45;&gt;WRAPPER_CPP -->
<g id="edge14" class="edge">
<title>SWIG&#45;&gt;WRAPPER_CPP</title>
<path fill="none" stroke="black" stroke-width="2" d="M509.94,-679C498.25,-679 483.89,-679 469.16,-679"/>
<polygon fill="black" stroke="black" stroke-width="2" points="468.92,-675.5 458.92,-679 468.92,-682.5 468.92,-675.5"/>
<text text-anchor="middle" x="484.25" y="-685.8" font-family="Times,serif" font-size="14.00">swig</text>
</g>
<!-- FOO_JAVA -->
<g id="node12" class="node">
<title>FOO_JAVA</title>
<polygon fill="crimson" stroke="black" points="450,-323 380,-323 380,-287 456,-287 456,-317 450,-323"/>
<polyline fill="none" stroke="black" points="450,-323 450,-317 "/>
<polyline fill="none" stroke="black" points="456,-317 450,-317 "/>
<text text-anchor="middle" x="418" y="-301.3" font-family="Times,serif" font-size="14.00">Foo.java</text>
</g>
<!-- SWIG&#45;&gt;FOO_JAVA -->
<g id="edge15" class="edge">
<title>SWIG&#45;&gt;FOO_JAVA</title>
<path fill="none" stroke="black" stroke-width="2" d="M545.19,-660.82C567.1,-612.21 621.83,-470.93 568,-374 547.78,-337.6 502.03,-320.61 466.33,-312.72"/>
<polygon fill="black" stroke="black" stroke-width="2" points="466.59,-309.2 456.09,-310.64 465.19,-316.06 466.59,-309.2"/>
<text text-anchor="middle" x="607" y="-499.3" font-family="Times,serif" font-size="14.00">swig</text>
</g>
<!-- PKG -->
<g id="node2" class="node">
<title>PKG</title>
<polygon fill="royalblue" stroke="black" points="487,-787 339,-787 335,-783 335,-749 483,-749 487,-753 487,-787"/>
<polyline fill="none" stroke="black" points="483,-783 335,-783 "/>
<polyline fill="none" stroke="black" points="483,-783 483,-749 "/>
<polyline fill="none" stroke="black" points="483,-783 487,-787 "/>
<text text-anchor="middle" x="411" y="-771.8" font-family="Times,serif" font-size="14.00">C++ dev packages</text>
<text text-anchor="middle" x="411" y="-756.8" font-family="Times,serif" font-size="14.00">e.g. cmake, g++</text>
</g>
<!-- CPP -->
<g id="node3" class="node">
<title>CPP</title>
<polygon fill="royalblue" stroke="black" points="311,-786 183,-786 183,-750 317,-750 317,-780 311,-786"/>
<polyline fill="none" stroke="black" points="311,-786 311,-780 "/>
<polyline fill="none" stroke="black" points="317,-780 311,-780 "/>
<text text-anchor="middle" x="250" y="-764.3" font-family="Times,serif" font-size="14.00">Foo.hpp/Foo.cpp</text>
</g>
<!-- CPP&#45;&gt;SWIG -->
<g id="edge13" class="edge">
<title>CPP&#45;&gt;SWIG</title>
<path fill="none" stroke="black" stroke-dasharray="5,2" d="M316.34,-749.99C378.17,-733.9 465.68,-710.4 499,-698 499.44,-697.83 499.89,-697.67 500.34,-697.49"/>
<polygon fill="black" stroke="black" points="501.95,-700.62 509.84,-693.55 499.27,-694.15 501.95,-700.62"/>
<text text-anchor="middle" x="466" y="-719.8" font-family="Times,serif" font-size="14.00">include</text>
</g>
<!-- LIB -->
<g id="node4" class="node">
<title>LIB</title>
<polygon fill="royalblue" stroke="black" points="292.5,-698 183.5,-698 183.5,-694 179.5,-694 179.5,-690 183.5,-690 183.5,-668 179.5,-668 179.5,-664 183.5,-664 183.5,-660 292.5,-660 292.5,-698"/>
<polyline fill="none" stroke="black" points="183.5,-694 187.5,-694 187.5,-690 183.5,-690 "/>
<polyline fill="none" stroke="black" points="183.5,-668 187.5,-668 187.5,-664 183.5,-664 "/>
<text text-anchor="middle" x="238" y="-682.8" font-family="Times,serif" font-size="14.00">libFoo.so</text>
<text text-anchor="middle" x="238" y="-667.8" font-family="Times,serif" font-size="14.00">linux&#45;x86&#45;64/</text>
</g>
<!-- CPP&#45;&gt;LIB -->
<g id="edge2" class="edge">
<title>CPP&#45;&gt;LIB</title>
<path fill="none" stroke="black" stroke-width="2" d="M247.63,-749.81C245.99,-737.89 243.76,-721.76 241.86,-708"/>
<polygon fill="black" stroke="black" stroke-width="2" points="245.32,-707.48 240.49,-698.05 238.39,-708.44 245.32,-707.48"/>
<text text-anchor="middle" x="272" y="-719.8" font-family="Times,serif" font-size="14.00">g++, ld</text>
</g>
<!-- CPP&#45;&gt;WRAPPER_CPP -->
<g id="edge1" class="edge">
<title>CPP&#45;&gt;WRAPPER_CPP</title>
<path fill="none" stroke="black" stroke-dasharray="5,2" d="M280.68,-749.92C288.83,-744.52 297.24,-738.09 304,-731 309.37,-725.37 307.27,-721.25 313,-716 318.78,-710.71 325.48,-706.03 332.44,-701.95"/>
<polygon fill="black" stroke="black" points="334.24,-704.95 341.34,-697.09 330.89,-698.81 334.24,-704.95"/>
<text text-anchor="middle" x="339" y="-719.8" font-family="Times,serif" font-size="14.00">include</text>
</g>
<!-- NATIVE_POM -->
<g id="node9" class="node">
<title>NATIVE_POM</title>
<polygon fill="crimson" stroke="black" points="278,-411 36,-411 36,-375 284,-375 284,-405 278,-411"/>
<polyline fill="none" stroke="black" points="278,-411 278,-405 "/>
<polyline fill="none" stroke="black" points="284,-405 278,-405 "/>
<text text-anchor="middle" x="160" y="-389.3" font-family="Times,serif" font-size="14.00">javanative&#45;linux&#45;x86&#45;64/pom.xml</text>
</g>
<!-- LIB&#45;&gt;NATIVE_POM -->
<g id="edge16" class="edge">
<title>LIB&#45;&gt;NATIVE_POM</title>
<path fill="none" stroke="black" stroke-dasharray="5,2" d="M233,-659.8C219.68,-611.28 183.24,-478.61 167.45,-421.14"/>
<polygon fill="black" stroke="black" points="170.78,-420.04 164.76,-411.32 164.03,-421.89 170.78,-420.04"/>
<text text-anchor="middle" x="271" y="-543.8" font-family="Times,serif" font-size="14.00">src/main/resources</text>
</g>
<!-- NATIVE_JAR -->
<g id="node10" class="node">
<title>NATIVE_JAR</title>
<polygon fill="crimson" stroke="black" points="242,-323 239,-327 218,-327 215,-323 36,-323 36,-287 242,-287 242,-323"/>
<text text-anchor="middle" x="139" y="-301.3" font-family="Times,serif" font-size="14.00">javanative&#45;linux&#45;x86&#45;64.jar</text>
</g>
<!-- LIB&#45;&gt;NATIVE_JAR -->
<g id="edge17" class="edge">
<title>LIB&#45;&gt;NATIVE_JAR</title>
<path fill="none" stroke="black" stroke-dasharray="5,2" d="M212.46,-659.99C165.04,-624.77 64.76,-541.57 27,-443 16.03,-414.36 11.96,-400.73 27,-374 38.66,-353.28 59.47,-338.14 80.02,-327.48"/>
<polygon fill="black" stroke="black" points="81.65,-330.58 89.09,-323.04 78.57,-324.29 81.65,-330.58"/>
<text text-anchor="middle" x="89" y="-499.3" font-family="Times,serif" font-size="14.00">pack</text>
</g>
<!-- WRAPPER_OBJ -->
<g id="node6" class="node">
<title>WRAPPER_OBJ</title>
<polygon fill="royalblue" stroke="black" points="470,-609 320,-609 320,-573 476,-573 476,-603 470,-609"/>
<polyline fill="none" stroke="black" points="470,-609 470,-603 "/>
<polyline fill="none" stroke="black" points="476,-603 470,-603 "/>
<text text-anchor="middle" x="398" y="-587.3" font-family="Times,serif" font-size="14.00">fooJAVA_wrap.cxx.o</text>
</g>
<!-- WRAPPER_CPP&#45;&gt;WRAPPER_OBJ -->
<g id="edge3" class="edge">
<title>WRAPPER_CPP&#45;&gt;WRAPPER_OBJ</title>
<path fill="none" stroke="black" stroke-width="2" d="M371.67,-660.68C364.9,-650.87 359.4,-638.34 364,-627 365.42,-623.5 367.38,-620.15 369.65,-617.02"/>
<polygon fill="black" stroke="black" stroke-width="2" points="372.43,-619.14 376.2,-609.24 367.08,-614.63 372.43,-619.14"/>
<text text-anchor="middle" x="381" y="-630.8" font-family="Times,serif" font-size="14.00">g++</text>
</g>
<!-- WRAPPER_LIB -->
<g id="node7" class="node">
<title>WRAPPER_LIB</title>
<polygon fill="royalblue" stroke="black" points="485,-522 357,-522 357,-518 353,-518 353,-514 357,-514 357,-492 353,-492 353,-488 357,-488 357,-484 485,-484 485,-522"/>
<polyline fill="none" stroke="black" points="357,-518 361,-518 361,-514 357,-514 "/>
<polyline fill="none" stroke="black" points="357,-492 361,-492 361,-488 357,-488 "/>
<text text-anchor="middle" x="421" y="-506.8" font-family="Times,serif" font-size="14.00">jnijavanative.so</text>
<text text-anchor="middle" x="421" y="-491.8" font-family="Times,serif" font-size="14.00">linux&#45;x86&#45;64/</text>
</g>
<!-- WRAPPER_OBJ&#45;&gt;WRAPPER_LIB -->
<g id="edge4" class="edge">
<title>WRAPPER_OBJ&#45;&gt;WRAPPER_LIB</title>
<path fill="none" stroke="black" stroke-width="2" d="M402.65,-572.6C405.77,-560.94 409.94,-545.34 413.52,-531.96"/>
<polygon fill="black" stroke="black" stroke-width="2" points="416.91,-532.83 416.11,-522.27 410.15,-531.02 416.91,-532.83"/>
<text text-anchor="middle" x="417" y="-543.8" font-family="Times,serif" font-size="14.00">ld</text>
</g>
<!-- WRAPPER_LIB&#45;&gt;NATIVE_POM -->
<g id="edge18" class="edge">
<title>WRAPPER_LIB&#45;&gt;NATIVE_POM</title>
<path fill="none" stroke="black" stroke-dasharray="5,2" d="M377.31,-483.92C331.33,-464.9 259.03,-434.98 210.59,-414.94"/>
<polygon fill="black" stroke="black" points="211.82,-411.65 201.24,-411.07 209.14,-418.12 211.82,-411.65"/>
<text text-anchor="middle" x="397" y="-454.8" font-family="Times,serif" font-size="14.00">src/main/resources</text>
</g>
<!-- WRAPPER_LIB&#45;&gt;NATIVE_JAR -->
<g id="edge19" class="edge">
<title>WRAPPER_LIB&#45;&gt;NATIVE_JAR</title>
<path fill="none" stroke="black" stroke-dasharray="5,2" d="M454.06,-483.74C460.09,-478.81 465.55,-472.89 469,-466 479.83,-444.35 514.98,-432.32 465,-374 457.63,-365.4 337,-341.82 244.62,-324.85"/>
<polygon fill="black" stroke="black" points="245.1,-321.38 234.64,-323.02 243.84,-328.26 245.1,-321.38"/>
<text text-anchor="middle" x="508" y="-389.3" font-family="Times,serif" font-size="14.00">pack</text>
</g>
<!-- WRAPPER_LIB&#45;&gt;FOO_JAVA -->
<g id="edge20" class="edge">
<title>WRAPPER_LIB&#45;&gt;FOO_JAVA</title>
<path fill="none" stroke="black" stroke-dasharray="5,2" d="M465.64,-483.94C492.67,-471.93 523.2,-456.02 530,-443 544.19,-415.81 541.74,-402.33 530,-374 518.85,-347.07 490.8,-330.06 465.57,-319.79"/>
<polygon fill="black" stroke="black" points="466.66,-316.47 456.07,-316.18 464.17,-323.01 466.66,-316.47"/>
<text text-anchor="middle" x="551.5" y="-389.3" font-family="Times,serif" font-size="14.00">call</text>
</g>
<!-- JAVA_PKG -->
<g id="node8" class="node">
<title>JAVA_PKG</title>
<polygon fill="crimson" stroke="black" points="455.5,-412 306.5,-412 302.5,-408 302.5,-374 451.5,-374 455.5,-378 455.5,-412"/>
<polyline fill="none" stroke="black" points="451.5,-408 302.5,-408 "/>
<polyline fill="none" stroke="black" points="451.5,-408 451.5,-374 "/>
<polyline fill="none" stroke="black" points="451.5,-408 455.5,-412 "/>
<text text-anchor="middle" x="379" y="-396.8" font-family="Times,serif" font-size="14.00">Java SDK packages</text>
<text text-anchor="middle" x="379" y="-381.8" font-family="Times,serif" font-size="14.00">e.g. jdk, maven</text>
</g>
<!-- NATIVE_POM&#45;&gt;NATIVE_JAR -->
<g id="edge5" class="edge">
<title>NATIVE_POM&#45;&gt;NATIVE_JAR</title>
<path fill="none" stroke="black" stroke-width="2" d="M155.75,-374.6C152.83,-362.63 148.89,-346.5 145.57,-332.89"/>
<polygon fill="black" stroke="black" stroke-width="2" points="148.94,-331.97 143.17,-323.08 142.14,-333.63 148.94,-331.97"/>
<text text-anchor="middle" x="198" y="-344.8" font-family="Times,serif" font-size="14.00">mvn package</text>
</g>
<!-- FOO_POM -->
<g id="node13" class="node">
<title>FOO_POM</title>
<polygon fill="crimson" stroke="black" points="330,-236 146,-236 146,-200 336,-200 336,-230 330,-236"/>
<polyline fill="none" stroke="black" points="330,-236 330,-230 "/>
<polyline fill="none" stroke="black" points="336,-230 330,-230 "/>
<text text-anchor="middle" x="241" y="-214.3" font-family="Times,serif" font-size="14.00">javanative&#45;java/pom.xml</text>
</g>
<!-- NATIVE_JAR&#45;&gt;FOO_POM -->
<g id="edge12" class="edge">
<title>NATIVE_JAR&#45;&gt;FOO_POM</title>
<path fill="none" stroke="black" stroke-dasharray="5,2" d="M137.63,-286.96C137.69,-276.38 139.53,-263.11 147,-254 150.89,-249.25 155.49,-245.15 160.53,-241.61"/>
<polygon fill="black" stroke="black" points="162.71,-244.38 169.38,-236.15 159.03,-238.42 162.71,-244.38"/>
<text text-anchor="middle" x="190" y="-257.8" font-family="Times,serif" font-size="14.00">dependency</text>
</g>
<!-- FOO_JAR -->
<g id="node15" class="node">
<title>FOO_JAR</title>
<polygon fill="crimson" stroke="black" points="216,-60 213,-64 192,-64 189,-60 68,-60 68,-24 216,-24 216,-60"/>
<text text-anchor="middle" x="142" y="-38.3" font-family="Times,serif" font-size="14.00">javanative&#45;java.jar</text>
</g>
<!-- NATIVE_JAR&#45;&gt;FOO_JAR -->
<g id="edge11" class="edge">
<title>NATIVE_JAR&#45;&gt;FOO_JAR</title>
<path fill="none" stroke="black" stroke-dasharray="5,2" d="M122.25,-286.61C99.98,-261.33 64.65,-212.47 76,-167 85.11,-130.49 107.21,-92.95 123.34,-68.88"/>
<polygon fill="black" stroke="black" points="126.42,-70.57 129.19,-60.34 120.65,-66.62 126.42,-70.57"/>
<text text-anchor="middle" x="119" y="-170.8" font-family="Times,serif" font-size="14.00">dependency</text>
</g>
<!-- LOADER_JAVA -->
<g id="node11" class="node">
<title>LOADER_JAVA</title>
<polygon fill="crimson" stroke="black" points="352,-323 260,-323 260,-287 358,-287 358,-317 352,-323"/>
<polyline fill="none" stroke="black" points="352,-323 352,-317 "/>
<polyline fill="none" stroke="black" points="358,-317 352,-317 "/>
<text text-anchor="middle" x="309" y="-301.3" font-family="Times,serif" font-size="14.00">Loader.java</text>
</g>
<!-- LOADER_JAVA&#45;&gt;FOO_POM -->
<g id="edge6" class="edge">
<title>LOADER_JAVA&#45;&gt;FOO_POM</title>
<path fill="none" stroke="black" stroke-dasharray="5,2" d="M260.6,-286.95C253.22,-282.26 246.56,-276.36 242,-269 237.91,-262.4 236.56,-254.32 236.53,-246.59"/>
<polygon fill="black" stroke="black" points="240.03,-246.64 237.17,-236.44 233.04,-246.2 240.03,-246.64"/>
<text text-anchor="middle" x="290" y="-257.8" font-family="Times,serif" font-size="14.00">src/main/java</text>
</g>
<!-- FOO_JAVA&#45;&gt;FOO_POM -->
<g id="edge7" class="edge">
<title>FOO_JAVA&#45;&gt;FOO_POM</title>
<path fill="none" stroke="black" stroke-dasharray="5,2" d="M393.56,-286.82C378.11,-276.45 357.44,-263.45 338,-254 327.31,-248.8 315.64,-243.95 304.21,-239.6"/>
<polygon fill="black" stroke="black" points="305.29,-236.27 294.7,-236.08 302.86,-242.84 305.29,-236.27"/>
<text text-anchor="middle" x="413" y="-257.8" font-family="Times,serif" font-size="14.00">src/main/java</text>
</g>
<!-- FOO_CLS -->
<g id="node14" class="node">
<title>FOO_CLS</title>
<polygon fill="crimson" stroke="black" points="455.5,-149 254.5,-149 254.5,-145 250.5,-145 250.5,-141 254.5,-141 254.5,-119 250.5,-119 250.5,-115 254.5,-115 254.5,-111 455.5,-111 455.5,-149"/>
<polyline fill="none" stroke="black" points="254.5,-145 258.5,-145 258.5,-141 254.5,-141 "/>
<polyline fill="none" stroke="black" points="254.5,-119 258.5,-119 258.5,-115 254.5,-115 "/>
<text text-anchor="middle" x="355" y="-133.8" font-family="Times,serif" font-size="14.00">Foo.class</text>
<text text-anchor="middle" x="355" y="-118.8" font-family="Times,serif" font-size="14.00">/org/mizux/javanative/foo/</text>
</g>
<!-- FOO_POM&#45;&gt;FOO_CLS -->
<g id="edge8" class="edge">
<title>FOO_POM&#45;&gt;FOO_CLS</title>
<path fill="none" stroke="black" stroke-width="2" d="M263.8,-199.8C280.78,-186.99 304.18,-169.34 323.03,-155.12"/>
<polygon fill="black" stroke="black" stroke-width="2" points="325.19,-157.87 331.06,-149.06 320.97,-152.28 325.19,-157.87"/>
<text text-anchor="middle" x="349.5" y="-170.8" font-family="Times,serif" font-size="14.00">mvn compile</text>
</g>
<!-- FOO_POM&#45;&gt;FOO_JAR -->
<g id="edge10" class="edge">
<title>FOO_POM&#45;&gt;FOO_JAR</title>
<path fill="none" stroke="black" stroke-width="2" d="M206.45,-199.86C187.02,-188.3 164.26,-171.11 152,-149 138.6,-124.83 137.44,-92.73 138.8,-70.21"/>
<polygon fill="black" stroke="black" stroke-width="2" points="142.3,-70.25 139.62,-60 135.33,-69.69 142.3,-70.25"/>
<text text-anchor="middle" x="199" y="-126.3" font-family="Times,serif" font-size="14.00">mvn package</text>
</g>
<!-- FOO_CLS&#45;&gt;FOO_JAR -->
<g id="edge9" class="edge">
<title>FOO_CLS&#45;&gt;FOO_JAR</title>
<path fill="none" stroke="black" stroke-dasharray="5,2" d="M310.35,-110.97C276.31,-97.23 229.36,-78.27 193.69,-63.87"/>
<polygon fill="black" stroke="black" points="195,-60.62 184.42,-60.13 192.38,-67.12 195,-60.62"/>
<text text-anchor="middle" x="278" y="-81.8" font-family="Times,serif" font-size="14.00">pack</text>
</g>
</g>
</svg>
